<svg width="24" height="24" viewBox="0 0 24 24" fill="none" xmlns="http://www.w3.org/2000/svg">
<path d="M13.0269 12.1893C13.0269 12.1893 11.6365 10.795 11.6296 10.7904C11.382 10.5529 11.058 10.4227 10.7146 10.4227C10.3934 10.4227 10.0846 10.5391 9.84341 10.7503C9.83651 10.7549 9.7753 10.8143 9.76701 10.823C9.20276 11.3757 8.45488 11.6808 7.66235 11.6808C6.86982 11.6808 6.09847 11.3665 5.52961 10.7954C4.9603 10.2244 4.64872 9.46604 4.65148 8.65985C4.65701 7.00558 6.0078 5.65915 7.66281 5.65915H7.6826C8.03974 5.66146 8.3886 5.72588 8.71997 5.85012C8.72089 5.85012 8.72182 5.85104 8.72274 5.85104C8.8806 5.91454 9.04674 5.94675 9.21703 5.94675C9.24372 5.94675 9.27042 5.94583 9.29711 5.94445C9.97136 5.90442 10.5181 5.34395 10.5416 4.66843C10.5605 4.12545 10.2526 3.63262 9.75689 3.41174C9.75459 3.41036 9.75182 3.40944 9.74952 3.40806C9.7127 3.39196 9.67497 3.37769 9.63631 3.36481C9.00624 3.12967 8.33936 3.01003 7.65821 3.01003C6.14909 3.01003 4.7311 3.59443 3.66474 4.65555C2.59837 5.71667 2.00696 7.13166 2.00006 8.64052C1.99316 10.1567 2.57812 11.5837 3.64817 12.6582C4.71776 13.7326 6.14219 14.3244 7.65821 14.3244C8.49676 14.3244 9.30448 14.1449 10.0588 13.7911C10.3888 13.6319 11.1164 13.4363 11.9992 13.4363C12.1658 13.4363 12.3333 13.4441 12.4971 13.4598C12.4971 13.4598 12.5593 13.4644 12.5763 13.4644C12.9716 13.4644 13.2933 13.1427 13.2933 12.7474C13.2933 12.5298 13.2054 12.3683 13.0273 12.1902L13.0269 12.1893Z" fill="#307FE2"/>
<path d="M16.3431 3C15.1083 3 13.9352 3.39067 12.9503 4.12969C11.998 4.84431 11.2819 5.86126 10.9344 6.99371C10.9326 6.99969 10.9312 7.00568 10.9303 7.01212C10.8999 7.12486 10.8843 7.24128 10.8843 7.35724C10.8843 8.08797 11.4789 8.68249 12.2098 8.68249C12.7943 8.68249 13.3139 8.29412 13.48 7.73549C13.4823 7.73089 13.4842 7.72628 13.4855 7.72168C13.8915 6.48248 15.0416 5.65005 16.3468 5.65005C18.0074 5.65005 19.3582 7.00061 19.3582 8.66086C19.3582 9.43807 19.0631 10.1752 18.527 10.7376C17.9563 11.3082 17.959 12.1539 18.4625 12.6573C18.9817 13.1764 19.8207 13.1796 20.3762 12.6242C21.4228 11.5612 22.0004 10.1518 22.0004 8.65764C22.0013 5.53777 19.4631 3 16.3431 3Z" fill="#F7694C"/>
<path d="M15.743 13.5091L11.9939 17.2575L11.2138 16.4776C10.6896 15.9535 9.87081 15.9507 9.34384 16.4776C8.81687 17.0045 8.8224 17.8263 9.34384 18.3472L11.4812 20.4842C11.6193 20.6222 11.8024 20.6981 11.998 20.6981C12.1936 20.6981 12.3768 20.6222 12.5149 20.4842L17.6134 15.3787C18.1279 14.8643 18.1376 14.0332 17.6019 13.4971C17.097 12.9923 16.2511 13.0015 15.7434 13.5091H15.743Z" fill="#26C981"/>
</svg>
